<?xml version="1.0" encoding="UTF-8" standalone="no" ?>
<!DOCTYPE svg PUBLIC "-//W3C//DTD SVG 1.1//EN" "http://www.w3.org/Graphics/SVG/1.1/DTD/svg11.dtd">
<svg xmlns="http://www.w3.org/2000/svg" xmlns:xlink="http://www.w3.org/1999/xlink" version="1.1" width="270" height="150" viewBox="0 0 180 100" xml:space="preserve">
<defs>
</defs>
<g transform="matrix(1 0 0 1 90.5 46.58)"  >
<g style=""   >
		<g transform="matrix(1 0 0 1 -41.09 -4.35)"  >
<path style="stroke: none; stroke-width: 1; stroke-dasharray: none; stroke-linecap: butt; stroke-dashoffset: 0; stroke-linejoin: miter; stroke-miterlimit: 4; fill: rgb(224,7,22); fill-rule: nonzero; opacity: 1;"  transform=" translate(-26.32, 10.11)" d="M 49.902344 -9.789062 C 49.472656 -10.125 47.9375 -10.269531 39.875 -10.507812 C 40.882812 -14.636719 41.84375 -18.664062 42.707031 -22.3125 C 43.953125 -27.496094 45.058594 -32.003906 45.679688 -34.742188 C 46.59375 -38.867188 47.121094 -41.890625 47.359375 -44 C 47.550781 -46.160156 47.457031 -47.695312 46.351562 -48.078125 C 44.144531 -48.847656 41.265625 -43.761719 30.949219 -23.367188 C 28.886719 -19.289062 26.726562 -15.066406 24.566406 -10.941406 C 17.65625 -11.132812 11.277344 -11.277344 10.363281 -11.46875 C 9.835938 -11.5625 9.355469 -11.277344 9.261719 -10.75 C 9.164062 -10.269531 9.5 -9.789062 9.980469 -9.691406 C 10.988281 -9.453125 15.785156 -9.308594 23.65625 -9.117188 C 19.769531 -1.726562 15.980469 4.992188 12.957031 9.070312 C 11.371094 11.226562 9.882812 11.949219 8.542969 11.132812 C 4.992188 9.070312 2.253906 -3.117188 5.949219 -11.421875 C 9.117188 -18.570312 15.210938 -18.328125 19.769531 -16.890625 C 20.25 -16.746094 20.777344 -17.035156 20.921875 -17.515625 C 21.066406 -17.992188 20.824219 -18.523438 20.296875 -18.664062 C 12.859375 -21.015625 7.148438 -18.714844 4.269531 -12.140625 C 0.625 -3.984375 2.496094 9.789062 7.628906 12.765625 C 8.925781 13.484375 11.515625 14.15625 14.441406 10.171875 C 17.65625 5.855469 21.640625 -1.296875 25.671875 -9.070312 C 26.390625 -9.019531 27.109375 -9.019531 27.832031 -9.019531 C 30.996094 -8.925781 34.40625 -8.828125 37.570312 -8.734375 C 30.132812 22.9375 30.132812 27.109375 31.859375 27.832031 C 32.054688 27.878906 32.195312 27.925781 32.339844 27.925781 C 33.300781 27.925781 34.117188 26.726562 34.789062 25.574219 C 35.027344 25.144531 34.882812 24.566406 34.453125 24.28125 C 34.019531 24.039062 33.445312 24.183594 33.203125 24.617188 C 33.011719 24.902344 32.867188 25.144531 32.726562 25.335938 C 32.726562 23.609375 33.253906 19.195312 35.652344 7.917969 C 36.804688 2.6875 38.097656 -3.070312 39.441406 -8.683594 C 44.335938 -8.542969 48.222656 -8.398438 48.992188 -8.207031 C 49.085938 -8.15625 49.230469 -8.109375 49.375 -8.109375 C 49.664062 -8.109375 49.953125 -8.253906 50.09375 -8.492188 C 50.382812 -8.925781 50.289062 -9.5 49.902344 -9.789062 Z M 27.878906 -10.84375 C 27.445312 -10.84375 27.0625 -10.890625 26.632812 -10.890625 C 28.644531 -14.777344 30.660156 -18.714844 32.582031 -22.550781 C 37.425781 -32.101562 43.378906 -43.855469 45.585938 -46.015625 C 45.632812 -45.007812 45.488281 -42.320312 43.855469 -35.125 C 43.28125 -32.390625 42.179688 -27.925781 40.929688 -22.746094 C 39.875 -18.328125 38.867188 -14.300781 38.003906 -10.605469 C 35.316406 -10.652344 31.957031 -10.75 27.878906 -10.84375 Z M 27.878906 -10.84375" stroke-linecap="round" />
</g>
		<g transform="matrix(1 0 0 1 -7.98 -1.37)"  >
<path style="stroke: none; stroke-width: 1; stroke-dasharray: none; stroke-linecap: butt; stroke-dashoffset: 0; stroke-linejoin: miter; stroke-miterlimit: 4; fill: rgb(224,7,22); fill-rule: nonzero; opacity: 1;"  transform=" translate(-9.67, 7.13)" d="M 20.058594 -10.652344 C 19.625 -10.84375 19.050781 -10.652344 18.859375 -10.21875 C 15.210938 -2.78125 12.476562 -0.433594 11.179688 -0.671875 C 10.652344 -0.769531 8.925781 -1.777344 8.492188 -10.171875 C 8.492188 -10.554688 8.207031 -10.890625 7.871094 -10.988281 C 7.484375 -11.085938 7.054688 -10.988281 6.863281 -10.652344 C 6.574219 -10.316406 6.285156 -9.933594 5.996094 -9.5 C 4.796875 -7.871094 3.214844 -5.660156 1.296875 -3.597656 C 1.007812 -3.261719 0.769531 -3.070312 0.625 -2.976562 C 0.289062 -4.65625 2.0625 -11.085938 4.894531 -13.101562 C 5.710938 -13.675781 6.8125 -14.105469 8.300781 -12.378906 C 8.636719 -11.996094 9.214844 -11.949219 9.597656 -12.285156 C 9.980469 -12.570312 10.027344 -13.195312 9.742188 -13.578125 C 7.917969 -15.691406 6.191406 -15.644531 5.039062 -15.257812 C 1.34375 -13.964844 -1.152344 -6.863281 -1.246094 -3.597656 C -1.296875 -2.253906 -0.910156 -1.390625 -0.144531 -1.105469 C 1.054688 -0.625 2.253906 -1.917969 2.640625 -2.351562 C 4.269531 -4.125 5.757812 -6.046875 6.8125 -7.535156 C 7.339844 -2.0625 8.636719 0.671875 10.796875 1.152344 C 10.988281 1.152344 11.179688 1.199219 11.371094 1.199219 C 14.636719 1.199219 18.136719 -4.511719 20.488281 -9.40625 C 20.730469 -9.882812 20.539062 -10.414062 20.058594 -10.652344 Z M 20.058594 -10.652344" stroke-linecap="round" />
</g>
		<g transform="matrix(1 0 0 1 -3.69 16.09)"  >
<path style="stroke: none; stroke-width: 1; stroke-dasharray: none; stroke-linecap: butt; stroke-dashoffset: 0; stroke-linejoin: miter; stroke-miterlimit: 4; fill: rgb(224,7,22); fill-rule: nonzero; opacity: 1;"  transform=" translate(0.96, -10.32)" d="M 15.066406 -10.460938 C 14.777344 -10.890625 14.203125 -10.988281 13.769531 -10.699219 C 9.644531 -8.011719 5.421875 -5.039062 1.390625 -1.296875 C 1.96875 -4.894531 2.542969 -8.683594 3.070312 -12.667969 C 3.167969 -13.148438 2.78125 -13.628906 2.304688 -13.675781 C 1.777344 -13.769531 1.296875 -13.433594 1.246094 -12.90625 C 0.574219 -8.0625 -0.0976562 -3.453125 -0.816406 0.910156 C -4.847656 4.992188 -8.589844 9.980469 -11.898438 16.316406 C -17.371094 26.824219 -18.378906 38.484375 -15.644531 41.890625 C -15.113281 42.515625 -14.441406 42.851562 -13.722656 42.851562 C -13.484375 42.851562 -13.292969 42.851562 -13.050781 42.753906 C -9.933594 41.890625 -7.148438 34.933594 -5.328125 29.269531 C -3.070312 22.265625 -1.007812 13.003906 0.910156 1.777344 C 5.375 -2.734375 10.125 -6.140625 14.777344 -9.164062 C 15.210938 -9.453125 15.308594 -10.027344 15.066406 -10.460938 Z M -7.101562 28.742188 C -10.554688 39.632812 -13.101562 40.835938 -13.53125 40.976562 C -13.722656 41.027344 -13.914062 41.074219 -14.203125 40.691406 C -15.929688 38.578125 -16.074219 28.359375 -10.269531 17.179688 C -7.582031 12.042969 -4.605469 7.820312 -1.390625 4.222656 C -3.167969 14.15625 -5.085938 22.457031 -7.101562 28.742188 Z M 2.496094 -19.914062 C 4.941406 -19.816406 4.894531 -22.746094 2.925781 -22.121094 C 1.871094 -21.832031 0.625 -20.007812 2.496094 -19.914062 Z M 2.496094 -19.914062" stroke-linecap="round" />
</g>
		<g transform="matrix(1 0 0 1 15.75 -1.5)"  >
<path style="stroke: none; stroke-width: 1; stroke-dasharray: none; stroke-linecap: butt; stroke-dashoffset: 0; stroke-linejoin: miter; stroke-miterlimit: 4; fill: rgb(224,7,22); fill-rule: nonzero; opacity: 1;"  transform=" translate(-8.55, 7.27)" d="M 17.371094 -10.414062 C 16.9375 -10.75 16.363281 -10.652344 16.074219 -10.269531 C 14.058594 -7.675781 10.75 -5.519531 8.207031 -5.996094 C 8.253906 -6.332031 8.300781 -6.667969 8.300781 -7.003906 C 8.636719 -12.429688 6.957031 -13.53125 5.949219 -13.722656 C 4.796875 -13.964844 3.597656 -13.101562 3.023438 -11.660156 C 2.78125 -11.757812 2.496094 -11.757812 2.253906 -11.5625 C 0.335938 -10.363281 -1.246094 -7.292969 -0.382812 -3.984375 C 0.191406 -2.015625 1.535156 -0.769531 3.3125 -0.769531 C 4.992188 -0.769531 6.765625 -2.015625 7.675781 -4.222656 C 11.035156 -3.503906 15.066406 -5.996094 17.515625 -9.117188 C 17.851562 -9.546875 17.753906 -10.125 17.371094 -10.414062 Z M 3.359375 -2.589844 C 3.3125 -2.589844 3.3125 -2.589844 3.3125 -2.589844 C 2.109375 -2.640625 1.582031 -3.789062 1.441406 -4.460938 C 0.960938 -6.09375 1.34375 -8.347656 2.6875 -9.597656 C 2.78125 -7.964844 3.695312 -6.191406 5.996094 -4.941406 C 5.328125 -3.40625 4.175781 -2.589844 3.359375 -2.589844 Z M 6.476562 -7.101562 C 6.429688 -7.003906 6.429688 -6.910156 6.429688 -6.8125 C 4.605469 -8.011719 4.320312 -9.546875 4.65625 -10.75 C 4.894531 -11.515625 5.375 -11.898438 5.613281 -11.898438 C 5.855469 -11.851562 6.667969 -10.941406 6.476562 -7.101562 Z M 6.476562 -7.101562" stroke-linecap="round" />
</g>
		<g transform="matrix(1 0 0 1 28.45 -0.61)"  >
<path style="stroke: none; stroke-width: 1; stroke-dasharray: none; stroke-linecap: butt; stroke-dashoffset: 0; stroke-linejoin: miter; stroke-miterlimit: 4; fill: rgb(224,7,22); fill-rule: nonzero; opacity: 1;"  transform=" translate(-8.82, 6.38)" d="M 19.289062 -10.699219 C 18.859375 -10.941406 18.28125 -10.796875 18.042969 -10.316406 C 16.890625 -8.347656 13.867188 -3.023438 12.140625 -3.214844 C 11.804688 -3.261719 10.84375 -3.742188 9.882812 -7.101562 C 9.214844 -9.453125 8.300781 -11.660156 6.527344 -11.757812 C 5.230469 -11.851562 3.789062 -10.84375 1.582031 -6.71875 C 2.160156 -8.78125 2.78125 -10.84375 3.261719 -12.523438 C 3.453125 -13.148438 3.597656 -13.675781 3.742188 -14.203125 C 3.886719 -14.683594 3.597656 -15.210938 3.117188 -15.355469 C 2.640625 -15.5 2.109375 -15.210938 1.96875 -14.683594 C 1.824219 -14.203125 1.679688 -13.628906 1.488281 -13.050781 C 0.238281 -8.78125 -1.632812 -2.304688 -2.109375 1.632812 C -2.160156 2.0625 -1.871094 2.496094 -1.441406 2.589844 C -1.34375 2.640625 -1.296875 2.640625 -1.199219 2.640625 C -0.816406 2.640625 -0.480469 2.398438 -0.335938 2.0625 C 4.175781 -9.164062 5.996094 -9.933594 6.429688 -9.933594 C 6.527344 -9.933594 7.199219 -9.742188 8.109375 -6.574219 C 9.070312 -3.261719 10.316406 -1.582031 11.949219 -1.390625 C 14.394531 -1.105469 16.601562 -4.125 19.625 -9.40625 C 19.914062 -9.882812 19.722656 -10.414062 19.289062 -10.699219 Z M 19.289062 -10.699219" stroke-linecap="round" />
</g>
		<g transform="matrix(1 0 0 1 43.28 1.22)"  >
<path style="stroke: none; stroke-width: 1; stroke-dasharray: none; stroke-linecap: butt; stroke-dashoffset: 0; stroke-linejoin: miter; stroke-miterlimit: 4; fill: rgb(224,7,22); fill-rule: nonzero; opacity: 1;"  transform=" translate(-9.46, 4.54)" d="M 19.097656 -10.363281 C 18.664062 -10.605469 18.089844 -10.460938 17.851562 -10.027344 C 13.292969 -2.734375 9.453125 0.527344 8.636719 0.238281 C 8.636719 0.238281 7.675781 -0.289062 8.589844 -5.804688 C 8.925781 -7.675781 9.070312 -8.734375 8.15625 -9.117188 C 7.292969 -9.453125 6.765625 -8.734375 5.757812 -7.292969 C 4.941406 -6.140625 3.839844 -4.605469 2.640625 -3.550781 C 2.496094 -3.453125 1.96875 -2.976562 1.726562 -3.167969 C 1.007812 -3.742188 0.863281 -6.863281 2.542969 -9.742188 C 2.832031 -10.171875 2.640625 -10.75 2.207031 -11.035156 C 1.777344 -11.277344 1.199219 -11.132812 0.960938 -10.699219 C -0.960938 -7.339844 -1.152344 -3.167969 0.527344 -1.777344 C 0.960938 -1.390625 2.160156 -0.71875 3.839844 -2.109375 C 4.941406 -3.070312 5.902344 -4.320312 6.667969 -5.375 C 5.996094 -0.910156 6.382812 1.34375 7.964844 1.96875 C 8.207031 2.0625 8.445312 2.0625 8.636719 2.0625 C 12.285156 2.0625 18.1875 -7.148438 19.386719 -9.070312 C 19.671875 -9.5 19.53125 -10.078125 19.097656 -10.363281 Z M 19.097656 -10.363281" stroke-linecap="round" />
</g>
		<g transform="matrix(1 0 0 1 59.35 6.95)"  >
<path style="stroke: none; stroke-width: 1; stroke-dasharray: none; stroke-linecap: butt; stroke-dashoffset: 0; stroke-linejoin: miter; stroke-miterlimit: 4; fill: rgb(224,7,22); fill-rule: nonzero; opacity: 1;"  transform=" translate(-11.28, -1.18)" d="M 21.351562 -10.988281 C 20.96875 -11.324219 20.394531 -11.277344 20.058594 -10.890625 C 16.265625 -6.527344 10.316406 0.433594 9.355469 1.679688 C 9.070312 2.015625 8.78125 2.398438 8.492188 2.78125 C 8.109375 1.824219 7.628906 0.910156 7.003906 -0.046875 C 4.703125 -3.597656 2.640625 -6.957031 2.734375 -9.308594 C 2.832031 -11.179688 3.789062 -12.8125 5.375 -13.769531 C 6.667969 -14.539062 8.109375 -14.683594 9.214844 -14.15625 C 9.644531 -13.964844 10.21875 -14.15625 10.414062 -14.636719 C 10.652344 -15.066406 10.460938 -15.644531 9.980469 -15.835938 C 8.347656 -16.601562 6.238281 -16.410156 4.414062 -15.355469 C 2.304688 -14.058594 1.054688 -11.898438 0.910156 -9.40625 C 0.769531 -6.476562 2.878906 -2.976562 5.46875 0.960938 C 6.285156 2.207031 6.8125 3.40625 7.148438 4.558594 C 3.40625 9.644531 -0.625 16.171875 1.441406 18.1875 C 1.777344 18.523438 2.207031 18.664062 2.640625 18.664062 C 3.40625 18.664062 4.269531 18.28125 5.183594 17.5625 C 7.773438 15.402344 10.460938 10.507812 9.164062 4.941406 C 9.691406 4.269531 10.21875 3.550781 10.796875 2.832031 C 11.757812 1.632812 17.707031 -5.328125 21.449219 -9.691406 C 21.785156 -10.078125 21.738281 -10.652344 21.351562 -10.988281 Z M 5.757812 14.105469 C 4.460938 16.027344 3.167969 16.792969 2.734375 16.84375 C 2.542969 16.171875 3.167969 13.386719 7.628906 7.054688 C 7.820312 10.507812 6.382812 13.148438 5.757812 14.105469 Z M 5.757812 14.105469" stroke-linecap="round" />
</g>
		<g transform="matrix(1 0 0 1 -80.28 25.13)"  >
<path style="stroke: none; stroke-width: 1; stroke-dasharray: none; stroke-linecap: butt; stroke-dashoffset: 0; stroke-linejoin: miter; stroke-miterlimit: 4; fill: rgb(15,25,28); fill-rule: nonzero; opacity: 1;"  transform=" translate(-8.02, 5.88)" d="M 12.109375 0 L 12.09375 -7.0625 L 8.625 -1.25 L 7.390625 -1.25 L 3.953125 -6.90625 L 3.953125 0 L 1.390625 0 L 1.390625 -11.765625 L 3.640625 -11.765625 L 8.046875 -4.453125 L 12.390625 -11.765625 L 14.625 -11.765625 L 14.65625 0 Z M 12.109375 0" stroke-linecap="round" />
</g>
		<g transform="matrix(1 0 0 1 -65.64 25.24)"  >
<path style="stroke: none; stroke-width: 1; stroke-dasharray: none; stroke-linecap: butt; stroke-dashoffset: 0; stroke-linejoin: miter; stroke-miterlimit: 4; fill: rgb(15,25,28); fill-rule: nonzero; opacity: 1;"  transform=" translate(-6.63, 5.78)" d="M 6.625 0.203125 C 4.945312 0.203125 3.640625 -0.257812 2.703125 -1.1875 C 1.765625 -2.125 1.296875 -3.453125 1.296875 -5.171875 L 1.296875 -11.765625 L 4.015625 -11.765625 L 4.015625 -5.28125 C 4.015625 -3.175781 4.890625 -2.125 6.640625 -2.125 C 7.492188 -2.125 8.144531 -2.375 8.59375 -2.875 C 9.039062 -3.382812 9.265625 -4.1875 9.265625 -5.28125 L 9.265625 -11.765625 L 11.953125 -11.765625 L 11.953125 -5.171875 C 11.953125 -3.453125 11.484375 -2.125 10.546875 -1.1875 C 9.609375 -0.257812 8.300781 0.203125 6.625 0.203125 Z M 6.625 0.203125" stroke-linecap="round" />
</g>
		<g transform="matrix(1 0 0 1 -53.66 25.13)"  >
<path style="stroke: none; stroke-width: 1; stroke-dasharray: none; stroke-linecap: butt; stroke-dashoffset: 0; stroke-linejoin: miter; stroke-miterlimit: 4; fill: rgb(15,25,28); fill-rule: nonzero; opacity: 1;"  transform=" translate(-5.36, 5.88)" d="M 5.265625 0.203125 C 4.328125 0.203125 3.425781 0.078125 2.5625 -0.171875 C 1.695312 -0.429688 1 -0.757812 0.46875 -1.15625 L 1.390625 -3.21875 C 1.898438 -2.84375 2.5 -2.539062 3.1875 -2.3125 C 3.882812 -2.09375 4.582031 -1.984375 5.28125 -1.984375 C 6.050781 -1.984375 6.617188 -2.097656 6.984375 -2.328125 C 7.359375 -2.554688 7.546875 -2.863281 7.546875 -3.25 C 7.546875 -3.53125 7.4375 -3.757812 7.21875 -3.9375 C 7 -4.125 6.71875 -4.273438 6.375 -4.390625 C 6.039062 -4.503906 5.582031 -4.628906 5 -4.765625 C 4.09375 -4.972656 3.351562 -5.179688 2.78125 -5.390625 C 2.21875 -5.609375 1.726562 -5.953125 1.3125 -6.421875 C 0.90625 -6.890625 0.703125 -7.519531 0.703125 -8.3125 C 0.703125 -8.988281 0.882812 -9.601562 1.25 -10.15625 C 1.625 -10.71875 2.179688 -11.160156 2.921875 -11.484375 C 3.671875 -11.804688 4.585938 -11.96875 5.671875 -11.96875 C 6.421875 -11.96875 7.148438 -11.878906 7.859375 -11.703125 C 8.578125 -11.523438 9.207031 -11.265625 9.75 -10.921875 L 8.90625 -8.859375 C 7.820312 -9.472656 6.738281 -9.78125 5.65625 -9.78125 C 4.882812 -9.78125 4.316406 -9.65625 3.953125 -9.40625 C 3.585938 -9.164062 3.40625 -8.84375 3.40625 -8.4375 C 3.40625 -8.03125 3.613281 -7.726562 4.03125 -7.53125 C 4.457031 -7.34375 5.101562 -7.148438 5.96875 -6.953125 C 6.863281 -6.742188 7.597656 -6.53125 8.171875 -6.3125 C 8.742188 -6.101562 9.234375 -5.769531 9.640625 -5.3125 C 10.046875 -4.851562 10.25 -4.234375 10.25 -3.453125 C 10.25 -2.773438 10.0625 -2.15625 9.6875 -1.59375 C 9.3125 -1.039062 8.75 -0.601562 8 -0.28125 C 7.25 0.0390625 6.335938 0.203125 5.265625 0.203125 Z M 5.265625 0.203125" stroke-linecap="round" />
</g>
		<g transform="matrix(1 0 0 1 -45.55 25.13)"  >
<path style="stroke: none; stroke-width: 1; stroke-dasharray: none; stroke-linecap: butt; stroke-dashoffset: 0; stroke-linejoin: miter; stroke-miterlimit: 4; fill: rgb(15,25,28); fill-rule: nonzero; opacity: 1;"  transform=" translate(-2.76, 5.88)" d="M 1.390625 -11.765625 L 4.125 -11.765625 L 4.125 0 L 1.390625 0 Z M 1.390625 -11.765625" stroke-linecap="round" />
</g>
		<g transform="matrix(1 0 0 1 -36.52 25.13)"  >
<path style="stroke: none; stroke-width: 1; stroke-dasharray: none; stroke-linecap: butt; stroke-dashoffset: 0; stroke-linejoin: miter; stroke-miterlimit: 4; fill: rgb(15,25,28); fill-rule: nonzero; opacity: 1;"  transform=" translate(-6.27, 5.88)" d="M 7.03125 0.203125 C 5.832031 0.203125 4.742188 -0.0546875 3.765625 -0.578125 C 2.796875 -1.097656 2.035156 -1.820312 1.484375 -2.75 C 0.929688 -3.675781 0.65625 -4.722656 0.65625 -5.890625 C 0.65625 -7.054688 0.929688 -8.097656 1.484375 -9.015625 C 2.035156 -9.941406 2.796875 -10.664062 3.765625 -11.1875 C 4.742188 -11.707031 5.835938 -11.96875 7.046875 -11.96875 C 8.066406 -11.96875 8.988281 -11.785156 9.8125 -11.421875 C 10.632812 -11.066406 11.328125 -10.554688 11.890625 -9.890625 L 10.140625 -8.265625 C 9.335938 -9.191406 8.347656 -9.65625 7.171875 -9.65625 C 6.453125 -9.65625 5.804688 -9.492188 5.234375 -9.171875 C 4.660156 -8.847656 4.210938 -8.398438 3.890625 -7.828125 C 3.566406 -7.265625 3.40625 -6.617188 3.40625 -5.890625 C 3.40625 -5.160156 3.566406 -4.507812 3.890625 -3.9375 C 4.210938 -3.363281 4.660156 -2.914062 5.234375 -2.59375 C 5.804688 -2.28125 6.453125 -2.125 7.171875 -2.125 C 8.347656 -2.125 9.335938 -2.585938 10.140625 -3.515625 L 11.890625 -1.90625 C 11.328125 -1.21875 10.628906 -0.691406 9.796875 -0.328125 C 8.972656 0.0234375 8.050781 0.203125 7.03125 0.203125 Z M 7.03125 0.203125" stroke-linecap="round" />
</g>
		<g transform="matrix(1 0 0 1 -19.45 25.13)"  >
<path style="stroke: none; stroke-width: 1; stroke-dasharray: none; stroke-linecap: butt; stroke-dashoffset: 0; stroke-linejoin: miter; stroke-miterlimit: 4; fill: rgb(15,25,28); fill-rule: nonzero; opacity: 1;"  transform=" translate(-6.27, 5.88)" d="M 7.03125 0.203125 C 5.832031 0.203125 4.742188 -0.0546875 3.765625 -0.578125 C 2.796875 -1.097656 2.035156 -1.820312 1.484375 -2.75 C 0.929688 -3.675781 0.65625 -4.722656 0.65625 -5.890625 C 0.65625 -7.054688 0.929688 -8.097656 1.484375 -9.015625 C 2.035156 -9.941406 2.796875 -10.664062 3.765625 -11.1875 C 4.742188 -11.707031 5.835938 -11.96875 7.046875 -11.96875 C 8.066406 -11.96875 8.988281 -11.785156 9.8125 -11.421875 C 10.632812 -11.066406 11.328125 -10.554688 11.890625 -9.890625 L 10.140625 -8.265625 C 9.335938 -9.191406 8.347656 -9.65625 7.171875 -9.65625 C 6.453125 -9.65625 5.804688 -9.492188 5.234375 -9.171875 C 4.660156 -8.847656 4.210938 -8.398438 3.890625 -7.828125 C 3.566406 -7.265625 3.40625 -6.617188 3.40625 -5.890625 C 3.40625 -5.160156 3.566406 -4.507812 3.890625 -3.9375 C 4.210938 -3.363281 4.660156 -2.914062 5.234375 -2.59375 C 5.804688 -2.28125 6.453125 -2.125 7.171875 -2.125 C 8.347656 -2.125 9.335938 -2.585938 10.140625 -3.515625 L 11.890625 -1.90625 C 11.328125 -1.21875 10.628906 -0.691406 9.796875 -0.328125 C 8.972656 0.0234375 8.050781 0.203125 7.03125 0.203125 Z M 7.03125 0.203125" stroke-linecap="round" />
</g>
		<g transform="matrix(1 0 0 1 -6.32 25.13)"  >
<path style="stroke: none; stroke-width: 1; stroke-dasharray: none; stroke-linecap: butt; stroke-dashoffset: 0; stroke-linejoin: miter; stroke-miterlimit: 4; fill: rgb(15,25,28); fill-rule: nonzero; opacity: 1;"  transform=" translate(-7.09, 5.88)" d="M 7.09375 0.203125 C 5.875 0.203125 4.769531 -0.0546875 3.78125 -0.578125 C 2.800781 -1.109375 2.035156 -1.835938 1.484375 -2.765625 C 0.929688 -3.691406 0.65625 -4.734375 0.65625 -5.890625 C 0.65625 -7.035156 0.929688 -8.070312 1.484375 -9 C 2.035156 -9.925781 2.800781 -10.648438 3.78125 -11.171875 C 4.769531 -11.703125 5.875 -11.96875 7.09375 -11.96875 C 8.3125 -11.96875 9.410156 -11.703125 10.390625 -11.171875 C 11.367188 -10.648438 12.132812 -9.925781 12.6875 -9 C 13.25 -8.070312 13.53125 -7.035156 13.53125 -5.890625 C 13.53125 -4.734375 13.25 -3.691406 12.6875 -2.765625 C 12.132812 -1.835938 11.367188 -1.109375 10.390625 -0.578125 C 9.410156 -0.0546875 8.3125 0.203125 7.09375 0.203125 Z M 7.09375 -2.125 C 7.789062 -2.125 8.414062 -2.28125 8.96875 -2.59375 C 9.53125 -2.914062 9.972656 -3.363281 10.296875 -3.9375 C 10.617188 -4.507812 10.78125 -5.160156 10.78125 -5.890625 C 10.78125 -6.617188 10.617188 -7.265625 10.296875 -7.828125 C 9.972656 -8.398438 9.53125 -8.847656 8.96875 -9.171875 C 8.414062 -9.492188 7.789062 -9.65625 7.09375 -9.65625 C 6.394531 -9.65625 5.765625 -9.492188 5.203125 -9.171875 C 4.648438 -8.847656 4.210938 -8.398438 3.890625 -7.828125 C 3.566406 -7.265625 3.40625 -6.617188 3.40625 -5.890625 C 3.40625 -5.160156 3.566406 -4.507812 3.890625 -3.9375 C 4.210938 -3.363281 4.648438 -2.914062 5.203125 -2.59375 C 5.765625 -2.28125 6.394531 -2.125 7.09375 -2.125 Z M 7.09375 -2.125" stroke-linecap="round" />
</g>
		<g transform="matrix(1 0 0 1 6.47 25.13)"  >
<path style="stroke: none; stroke-width: 1; stroke-dasharray: none; stroke-linecap: butt; stroke-dashoffset: 0; stroke-linejoin: miter; stroke-miterlimit: 4; fill: rgb(15,25,28); fill-rule: nonzero; opacity: 1;"  transform=" translate(-5.7, 5.88)" d="M 1.390625 -11.765625 L 4.125 -11.765625 L 4.125 -2.21875 L 10.015625 -2.21875 L 10.015625 0 L 1.390625 0 Z M 1.390625 -11.765625" stroke-linecap="round" />
</g>
		<g transform="matrix(1 0 0 1 16.62 25.13)"  >
<path style="stroke: none; stroke-width: 1; stroke-dasharray: none; stroke-linecap: butt; stroke-dashoffset: 0; stroke-linejoin: miter; stroke-miterlimit: 4; fill: rgb(15,25,28); fill-rule: nonzero; opacity: 1;"  transform=" translate(-5.7, 5.88)" d="M 1.390625 -11.765625 L 4.125 -11.765625 L 4.125 -2.21875 L 10.015625 -2.21875 L 10.015625 0 L 1.390625 0 Z M 1.390625 -11.765625" stroke-linecap="round" />
</g>
		<g transform="matrix(1 0 0 1 27.02 25.13)"  >
<path style="stroke: none; stroke-width: 1; stroke-dasharray: none; stroke-linecap: butt; stroke-dashoffset: 0; stroke-linejoin: miter; stroke-miterlimit: 4; fill: rgb(15,25,28); fill-rule: nonzero; opacity: 1;"  transform=" translate(-5.95, 5.88)" d="M 10.515625 -2.1875 L 10.515625 0 L 1.390625 0 L 1.390625 -11.765625 L 10.296875 -11.765625 L 10.296875 -9.578125 L 4.109375 -9.578125 L 4.109375 -7.03125 L 9.5625 -7.03125 L 9.5625 -4.90625 L 4.109375 -4.90625 L 4.109375 -2.1875 Z M 10.515625 -2.1875" stroke-linecap="round" />
</g>
		<g transform="matrix(1 0 0 1 38.61 25.13)"  >
<path style="stroke: none; stroke-width: 1; stroke-dasharray: none; stroke-linecap: butt; stroke-dashoffset: 0; stroke-linejoin: miter; stroke-miterlimit: 4; fill: rgb(15,25,28); fill-rule: nonzero; opacity: 1;"  transform=" translate(-6.27, 5.88)" d="M 7.03125 0.203125 C 5.832031 0.203125 4.742188 -0.0546875 3.765625 -0.578125 C 2.796875 -1.097656 2.035156 -1.820312 1.484375 -2.75 C 0.929688 -3.675781 0.65625 -4.722656 0.65625 -5.890625 C 0.65625 -7.054688 0.929688 -8.097656 1.484375 -9.015625 C 2.035156 -9.941406 2.796875 -10.664062 3.765625 -11.1875 C 4.742188 -11.707031 5.835938 -11.96875 7.046875 -11.96875 C 8.066406 -11.96875 8.988281 -11.785156 9.8125 -11.421875 C 10.632812 -11.066406 11.328125 -10.554688 11.890625 -9.890625 L 10.140625 -8.265625 C 9.335938 -9.191406 8.347656 -9.65625 7.171875 -9.65625 C 6.453125 -9.65625 5.804688 -9.492188 5.234375 -9.171875 C 4.660156 -8.847656 4.210938 -8.398438 3.890625 -7.828125 C 3.566406 -7.265625 3.40625 -6.617188 3.40625 -5.890625 C 3.40625 -5.160156 3.566406 -4.507812 3.890625 -3.9375 C 4.210938 -3.363281 4.660156 -2.914062 5.234375 -2.59375 C 5.804688 -2.28125 6.453125 -2.125 7.171875 -2.125 C 8.347656 -2.125 9.335938 -2.585938 10.140625 -3.515625 L 11.890625 -1.90625 C 11.328125 -1.21875 10.628906 -0.691406 9.796875 -0.328125 C 8.972656 0.0234375 8.050781 0.203125 7.03125 0.203125 Z M 7.03125 0.203125" stroke-linecap="round" />
</g>
		<g transform="matrix(1 0 0 1 49.85 25.13)"  >
<path style="stroke: none; stroke-width: 1; stroke-dasharray: none; stroke-linecap: butt; stroke-dashoffset: 0; stroke-linejoin: miter; stroke-miterlimit: 4; fill: rgb(15,25,28); fill-rule: nonzero; opacity: 1;"  transform=" translate(-5.2, 5.88)" d="M 3.828125 -9.546875 L 0.0625 -9.546875 L 0.0625 -11.765625 L 10.328125 -11.765625 L 10.328125 -9.546875 L 6.5625 -9.546875 L 6.5625 0 L 3.828125 0 Z M 3.828125 -9.546875" stroke-linecap="round" />
</g>
		<g transform="matrix(1 0 0 1 57.79 25.13)"  >
<path style="stroke: none; stroke-width: 1; stroke-dasharray: none; stroke-linecap: butt; stroke-dashoffset: 0; stroke-linejoin: miter; stroke-miterlimit: 4; fill: rgb(15,25,28); fill-rule: nonzero; opacity: 1;"  transform=" translate(-2.76, 5.88)" d="M 1.390625 -11.765625 L 4.125 -11.765625 L 4.125 0 L 1.390625 0 Z M 1.390625 -11.765625" stroke-linecap="round" />
</g>
		<g transform="matrix(1 0 0 1 67.64 25.13)"  >
<path style="stroke: none; stroke-width: 1; stroke-dasharray: none; stroke-linecap: butt; stroke-dashoffset: 0; stroke-linejoin: miter; stroke-miterlimit: 4; fill: rgb(15,25,28); fill-rule: nonzero; opacity: 1;"  transform=" translate(-7.09, 5.88)" d="M 7.09375 0.203125 C 5.875 0.203125 4.769531 -0.0546875 3.78125 -0.578125 C 2.800781 -1.109375 2.035156 -1.835938 1.484375 -2.765625 C 0.929688 -3.691406 0.65625 -4.734375 0.65625 -5.890625 C 0.65625 -7.035156 0.929688 -8.070312 1.484375 -9 C 2.035156 -9.925781 2.800781 -10.648438 3.78125 -11.171875 C 4.769531 -11.703125 5.875 -11.96875 7.09375 -11.96875 C 8.3125 -11.96875 9.410156 -11.703125 10.390625 -11.171875 C 11.367188 -10.648438 12.132812 -9.925781 12.6875 -9 C 13.25 -8.070312 13.53125 -7.035156 13.53125 -5.890625 C 13.53125 -4.734375 13.25 -3.691406 12.6875 -2.765625 C 12.132812 -1.835938 11.367188 -1.109375 10.390625 -0.578125 C 9.410156 -0.0546875 8.3125 0.203125 7.09375 0.203125 Z M 7.09375 -2.125 C 7.789062 -2.125 8.414062 -2.28125 8.96875 -2.59375 C 9.53125 -2.914062 9.972656 -3.363281 10.296875 -3.9375 C 10.617188 -4.507812 10.78125 -5.160156 10.78125 -5.890625 C 10.78125 -6.617188 10.617188 -7.265625 10.296875 -7.828125 C 9.972656 -8.398438 9.53125 -8.847656 8.96875 -9.171875 C 8.414062 -9.492188 7.789062 -9.65625 7.09375 -9.65625 C 6.394531 -9.65625 5.765625 -9.492188 5.203125 -9.171875 C 4.648438 -8.847656 4.210938 -8.398438 3.890625 -7.828125 C 3.566406 -7.265625 3.40625 -6.617188 3.40625 -5.890625 C 3.40625 -5.160156 3.566406 -4.507812 3.890625 -3.9375 C 4.210938 -3.363281 4.648438 -2.914062 5.203125 -2.59375 C 5.765625 -2.28125 6.394531 -2.125 7.09375 -2.125 Z M 7.09375 -2.125" stroke-linecap="round" />
</g>
		<g transform="matrix(1 0 0 1 81.51 25.13)"  >
<path style="stroke: none; stroke-width: 1; stroke-dasharray: none; stroke-linecap: butt; stroke-dashoffset: 0; stroke-linejoin: miter; stroke-miterlimit: 4; fill: rgb(15,25,28); fill-rule: nonzero; opacity: 1;"  transform=" translate(-6.79, 5.88)" d="M 12.1875 -11.765625 L 12.1875 0 L 9.953125 0 L 4.078125 -7.140625 L 4.078125 0 L 1.390625 0 L 1.390625 -11.765625 L 3.640625 -11.765625 L 9.5 -4.625 L 9.5 -11.765625 Z M 12.1875 -11.765625" stroke-linecap="round" />
</g>
</g>
</g>
</svg>